<?xml version="1.0" standalone="no"?>
<!DOCTYPE svg PUBLIC "-//W3C//DTD SVG 20010904//EN"
 "http://www.w3.org/TR/2001/REC-SVG-20010904/DTD/svg10.dtd">
<svg version="1.0" xmlns="http://www.w3.org/2000/svg"
 width="512.000000pt" height="512.000000pt" viewBox="0 0 512.000000 512.000000"
 preserveAspectRatio="xMidYMid meet">
<metadata>
Created by potrace 1.14, written by Peter Selinger 2001-2017
</metadata>
<g transform="translate(0.000000,512.000000) scale(0.100000,-0.100000)"
fill="#000000" stroke="none">
<path d="M2238 4835 c-53 -13 -259 -87 -1358 -486 -262 -95 -482 -181 -505
-197 -57 -39 -83 -98 -90 -202 -16 -236 -83 -2580 -75 -2629 15 -87 54 -132
161 -187 57 -28 1385 -613 1840 -809 200 -87 245 -99 359 -99 87 0 110 4 265
53 94 29 531 165 973 302 441 137 826 259 855 270 103 41 138 81 156 184 13
73 95 2658 87 2733 -11 94 -68 171 -154 208 -184 78 -2117 831 -2181 850 -96
28 -238 32 -333 9z m397 -264 c125 -31 261 -76 495 -166 914 -351 1140 -471
1140 -604 0 -50 -64 -111 -173 -165 -190 -94 -689 -269 -937 -330 -337 -82
-614 -89 -825 -20 -66 22 -1221 526 -1307 571 -87 45 -155 105 -163 143 -20
91 121 180 507 321 448 163 687 237 853 265 107 18 306 11 410 -15z m-1940
-811 c125 -30 339 -118 827 -341 478 -217 674 -332 824 -483 129 -129 184
-246 214 -451 23 -163 8 -595 -40 -1165 -38 -448 -79 -593 -184 -655 -136 -79
-330 -27 -1086 295 -525 223 -701 334 -781 492 -70 138 -70 160 -30 1338 33
949 32 938 101 972 44 22 57 22 155 -2z m3845 -320 c125 -64 156 -261 139
-890 -19 -744 -46 -1010 -121 -1216 -86 -240 -254 -372 -645 -510 -152 -54
-699 -220 -868 -264 -146 -38 -256 -44 -299 -17 -42 28 -56 73 -56 182 0 101
102 1670 120 1843 36 347 125 413 960 720 485 178 654 211 770 152z"/>
<path d="M2715 4159 c-256 -37 -432 -196 -443 -397 -4 -66 -1 -79 27 -137 50
-101 147 -163 291 -186 93 -14 199 -7 360 26 424 86 747 204 860 314 61 58 63
81 12 130 -104 99 -418 196 -795 246 -128 16 -218 18 -312 4z"/>
<path d="M1699 2961 c-36 -28 -57 -85 -74 -201 -26 -171 -57 -243 -140 -319
-78 -72 -157 -99 -365 -126 -284 -37 -374 -84 -450 -238 -185 -378 -6 -641
624 -919 227 -100 560 -228 632 -243 266 -55 381 103 414 565 29 407 -62 863
-230 1161 -137 243 -324 388 -411 320z"/>
<path d="M4152 3059 c-49 -15 -106 -78 -132 -145 -19 -51 -23 -81 -25 -219 -2
-170 -13 -232 -61 -365 -60 -167 -156 -322 -266 -426 -96 -91 -169 -128 -310
-159 -184 -41 -295 -109 -365 -226 -63 -105 -77 -220 -43 -331 48 -157 186
-237 405 -238 565 0 926 310 1058 911 45 201 52 285 51 594 0 307 -8 375 -53
464 -57 111 -163 169 -259 140z"/>
<path d="M3443 2899 c-214 -27 -365 -111 -409 -224 -23 -61 -15 -180 16 -255
49 -116 142 -230 218 -269 96 -49 221 -12 330 97 189 189 263 513 141 616 -53
45 -142 55 -296 35z"/>
</g>
</svg>
